<?xml version="1.0" encoding="UTF-8"?>
<svg width="54px" height="54px" viewBox="0 0 54 54" version="1.1" xmlns="http://www.w3.org/2000/svg" xmlns:xlink="http://www.w3.org/1999/xlink">
    <!-- Generator: Sketch 52.3 (67297) - http://www.bohemiancoding.com/sketch -->
    <title>icon/general/done</title>
    <desc>Created with Sketch.</desc>
    <g id="icon/general/done" stroke="none" stroke-width="1" fill="none" fill-rule="evenodd">
        <circle id="Oval" fill="#FFFFFF" fill-rule="nonzero" opacity="0" cx="27.5" cy="27.5" r="24.5"></circle>
        <g id="成功" fill="#48BF79" fill-rule="nonzero">
            <path d="M27.0118826,0.0267267492 C12.1098201,0.0267267492 0.0294542609,12.1070926 0.0294542609,27.0091551 C0.0294542609,41.9112176 12.1098201,53.9915834 27.0118826,53.9915834 C41.9139451,53.9915834 53.9943109,41.9112176 53.9943109,27.0091551 C53.9943109,12.1070926 41.9139451,0.0267267492 27.0118826,0.0267267492 Z M43.2632513,19.464363 L24.5925814,38.5395229 C24.5289448,38.6350087 24.4581005,38.7261822 24.3746275,38.8107025 C23.6428369,39.5539513 22.4565341,39.5539513 21.7242507,38.8107025 L12.4501806,29.3938966 C11.7189445,28.6505861 11.7189445,27.4461103 12.4501806,26.7039087 C13.1819096,25.9605982 14.3682124,25.9605982 15.100003,26.7039087 L23.0214402,34.7462124 L40.6128746,16.7733278 C41.3452196,16.030079 42.5309679,16.030079 43.2632513,16.7733278 C43.9944874,17.5165766 43.9944874,18.7209909 43.2632513,19.464363 Z" id="Shape"></path>
        </g>
    </g>
</svg>