<?xml version="1.0" encoding="UTF-8"?>
<svg width="54px" height="54px" viewBox="0 0 54 54" version="1.1" xmlns="http://www.w3.org/2000/svg" xmlns:xlink="http://www.w3.org/1999/xlink">
    <!-- Generator: Sketch 52.3 (67297) - http://www.bohemiancoding.com/sketch -->
    <title>icon/general/failed</title>
    <desc>Created with Sketch.</desc>
    <g id="icon/general/failed" stroke="none" stroke-width="1" fill="none" fill-rule="evenodd">
        <g fill-rule="nonzero">
            <circle id="Oval" fill="#FFFFFF" opacity="0" cx="27.5" cy="27.5" r="24.5"></circle>
            <path d="M27.0118826,0.0267883344 C12.1098817,0.0267883344 0.0294542609,12.1072157 0.0294542609,27.0092167 C0.0294542609,41.9112792 12.1098817,53.991645 27.0118826,53.991645 C41.9139451,53.991645 53.9943109,41.9112792 53.9943109,27.0092167 C53.9943109,12.1072158 41.9139451,0.0267883344 27.0118826,0.0267883344 Z M37.7269252,35.0493027 C38.4653074,35.7881777 38.4653074,36.9860003 37.7269252,37.7238281 C36.9874958,38.4627031 35.7902276,38.4627031 35.0507981,37.7238281 L27.0250658,29.6980957 L18.9987174,37.7238281 C18.2598423,38.4627031 17.0625741,38.4627031 16.3230831,37.7238281 C15.5847009,36.9860004 15.5847009,35.7881777 16.3230831,35.0493027 L24.3499243,27.0213526 L16.3230832,18.9955587 C15.584701,18.257731 15.584701,17.058861 16.3230832,16.319986 C17.0625126,15.5821583 18.2597808,15.5821583 18.9987174,16.319986 L27.0250658,24.3468272 L35.0507982,16.319986 C35.7902276,15.5821583 36.9874958,15.5821583 37.7269253,16.319986 C38.4653075,17.058861 38.4653075,18.2577926 37.7269253,18.9955587 L29.700084,27.0213526 L37.7269252,35.0493027 Z" id="Shape" fill="#FF4E50"></path>
        </g>
    </g>
</svg>