<?xml version="1.0" encoding="UTF-8"?>
<svg width="40px" height="40px" viewBox="0 0 40 40" version="1.1" xmlns="http://www.w3.org/2000/svg" xmlns:xlink="http://www.w3.org/1999/xlink">
    <!-- Generator: Sketch 51 (57462) - http://www.bohemiancoding.com/sketch -->
    <title>Icon/General/Calendar</title>
    <desc>Created with Sketch.</desc>
    <defs></defs>
    <g id="Icon/General/Calendar" stroke="none" stroke-width="1" fill="none" fill-rule="evenodd">
        <g id="calendar" fill="#49A5FF" fill-rule="nonzero">
            <path d="M31.1326976,4.68413742 C35.000694,4.68413742 38.1468122,7.86428155 38.1468122,11.7735099 L38.1468122,30.9378618 C38.1468122,34.847815 34.9997559,38.0291531 31.1326975,38.0291531 L6.38830821,37.9974723 C2.83085159,37.657341 0.038210655,34.621743 0.038210655,30.9387999 L0.038210655,12.518541 C0.038210655,7.3968302 3.18501107,4.68413737 7.05424402,4.68413737 L9.5770228,4.68413737 L9.5770228,1.1804059 L9.57744919,1.1804059 C9.58653133,0.543080876 10.1057037,0.0291530568 10.7451607,0.0291530568 C11.3902887,0.0291530568 11.9132986,0.552162973 11.9132986,1.19729097 C11.9132986,1.23050677 11.9115931,1.26329614 11.9088642,1.2958297 L11.9088642,4.68413742 L26.3972534,4.68413737 L26.3972534,1.1804059 L26.3976798,1.1804059 C26.406762,0.543080876 26.9259343,0.0291530568 27.5653913,0.0291530568 C28.2105193,0.0291530568 28.7335293,0.552162973 28.7335293,1.19729097 C28.7335293,1.23050677 28.7318237,1.26329614 28.7290948,1.2958297 L28.7290948,4.68413742 L31.1326976,4.68413742 Z M36.3260896,31.6932157 L36.3260896,16.2724386 L1.85897598,16.2724386 L1.85897598,31.6932157 C1.85897598,33.4436534 4.52997511,36.2298929 6.28306453,36.2885378 L31.9042047,36.2885378 C33.858993,36.2885378 36.3260896,33.5047049 36.3260896,31.6932157 Z M36.3939038,11.0911545 C36.3581887,8.96687111 33.8982376,6.55903829 31.4506245,6.55903829 L29.0925248,6.55903829 L29.0925248,10.495446 C29.0953567,10.5291629 29.0971266,10.5632337 29.0971266,10.5977027 C29.0971266,11.2671725 28.5543827,11.8099164 27.884913,11.8099164 C27.2299566,11.8099164 26.6966817,11.2904026 26.6726993,10.6410214 L26.6726993,6.55903829 L11.6375957,6.55903829 L11.6375957,10.4954459 C11.6404276,10.5291628 11.6421975,10.5632336 11.6421975,10.5977027 C11.6421975,11.2671724 11.0994536,11.8099163 10.4299839,11.8099163 C9.77502748,11.8099163 9.24175258,11.2904025 9.21777025,10.6410213 L9.21777025,6.55903824 L6.73400668,6.55903824 C3.85266805,6.55903824 1.79068312,9.3379175 1.79068312,11.092128 L1.79068312,14.3460694 L36.3939038,14.3460693 L36.3939038,11.0911545 Z M27.8500919,30.8837956 C26.9602588,30.8837956 26.2378689,30.3502539 26.2378689,29.6928885 C26.2378689,29.0355231 26.9602588,28.5019814 27.8500919,28.5019814 L29.3891891,28.5019814 C30.2790223,28.5019814 31.0014121,29.0355231 31.0014121,29.6928885 C31.0014121,30.3502539 30.2797471,30.8837956 29.3891891,30.8837956 L27.8500919,30.8837956 Z M27.8500919,23.7384382 C26.9602588,23.7384382 26.2378689,23.2048964 26.2378689,22.547531 C26.2378689,21.8901656 26.9602588,21.3566239 27.8500919,21.3566239 L29.3891891,21.3566239 C30.2790223,21.3566239 31.0014121,21.8901656 31.0014121,22.547531 C31.0014121,23.2048964 30.2797471,23.7384382 29.3891891,23.7384382 L27.8500919,23.7384382 Z M18.323176,23.7384382 C17.4328739,23.7384382 16.7106972,23.2048964 16.7106972,22.547531 C16.7106972,21.8901656 17.4328739,21.3566239 18.323176,21.3566239 L19.8618042,21.3566239 C20.7518932,21.3566239 21.474283,21.8901656 21.474283,22.547531 C21.474283,23.2048964 20.7518932,23.7384382 19.8618042,23.7384382 L18.323176,23.7384382 Z M8.79604699,23.7384382 C7.90595797,23.7384382 7.1835681,23.2048964 7.1835681,22.547531 C7.1835681,21.8901656 7.90595797,21.3566239 8.79604699,21.3566239 L10.3346751,21.3566239 C11.2249773,21.3566239 11.947154,21.8901656 11.947154,22.547531 C11.947154,23.2048964 11.2249773,23.7384382 10.3346751,23.7384382 L8.79604699,23.7384382 Z M18.323176,30.8837956 C17.4328739,30.8837956 16.7106972,30.3502539 16.7106972,29.6928885 C16.7106972,29.0355231 17.4328739,28.5019814 18.323176,28.5019814 L19.8618042,28.5019814 C20.7518932,28.5019814 21.474283,29.0355231 21.474283,29.6928885 C21.474283,30.3502539 20.7518932,30.8837956 19.8618042,30.8837956 L18.323176,30.8837956 Z M8.79604699,30.8837956 C7.90595797,30.8837956 7.1835681,30.3502539 7.1835681,29.6928885 C7.1835681,29.0355231 7.90595797,28.5019814 8.79604699,28.5019814 L10.3346751,28.5019814 C11.2249773,28.5019814 11.947154,29.0355231 11.947154,29.6928885 C11.947154,30.3502539 11.2249773,30.8837956 10.3346751,30.8837956 L8.79604699,30.8837956 Z" id="Shape"></path>
        </g>
    </g>
</svg>