<?xml version="1.0" encoding="UTF-8"?>
<svg width="40px" height="40px" viewBox="0 0 40 40" version="1.1" xmlns="http://www.w3.org/2000/svg" xmlns:xlink="http://www.w3.org/1999/xlink">
    <!-- Generator: Sketch 51 (57462) - http://www.bohemiancoding.com/sketch -->
    <title>Icon/General/IDcard</title>
    <desc>Created with Sketch.</desc>
    <defs></defs>
    <g id="Icon/General/IDcard" stroke="none" stroke-width="1" fill="none" fill-rule="evenodd">
        <path d="M6.31578947,4 L33.6842105,4 C37.1723247,4 40,6.6862915 40,10 L40,30 C40,33.3137085 37.1723247,36 33.6842105,36 L6.31578947,36 C2.82767526,36 4.67462326e-16,33.3137085 0,30 L0,10 C-4.67462326e-16,6.6862915 2.82767526,4 6.31578947,4 Z M6.23529412,6 C3.89620577,6 2,7.790861 2,10 L2,30 C2,32.209139 3.89620577,34 6.23529412,34 L33.7647059,34 C36.1037942,34 38,32.209139 38,30 L38,10 C38,7.790861 36.1037942,6 33.7647059,6 L6.23529412,6 Z M32.0709408,16.0000175 C32.0709408,17.5238671 31.3971224,18.873854 30.3557144,19.791831 C32.5174034,20.9599965 33.9996957,23.3021474 34,25.9999474 C34,26.5522132 33.5682437,27 33.0356732,27 C32.5031366,27 32.0713465,26.5522482 32.0713465,25.9999474 C32.0713465,23.2430713 29.9083051,20.9999649 27.2499493,20.9999649 C24.5915934,20.9999649 22.4285859,23.2430713 22.4285859,25.9999474 C22.4285859,26.5522132 21.9968296,27 21.4642592,27 C20.9317225,27 20.4999324,26.5522482 20.4999324,25.9999474 C20.4999324,23.3021474 21.9832052,20.9600316 24.1448266,19.791831 C23.1033848,18.873854 22.4285521,17.5238671 22.4285521,16.0000175 C22.4285521,13.2431414 24.5911201,11 27.2495436,11 C29.9079671,11 32.0709408,13.2431414 32.0709408,16.0000175 Z M27.2496112,13.0001402 C25.6520013,13.0001402 24.3569014,14.3431501 24.3569352,16.0001227 C24.358727,17.6559734 25.652745,18.9980016 27.2496112,18.9998247 C28.8471873,18.9998247 30.1422872,17.6568148 30.1422872,15.9999825 C30.1422872,14.3432203 28.8472211,13.0001402 27.2496112,13.0001402 Z M19.5354366,12.9997546 C20.0679732,12.9997546 20.4997633,13.4475414 20.4997633,13.9998072 C20.4997633,14.5520729 20.068007,14.9998598 19.5354366,14.9998598 L7.96432677,14.9998598 C7.43179012,14.9998598 7,14.5520729 7,13.9998072 C7,13.4475414 7.43175632,12.9997546 7.96432677,12.9997546 L19.5354366,12.9997546 Z M18.5711098,17.9997721 C19.1036465,17.9997721 19.5354366,18.4475589 19.5354366,18.9998247 C19.5354366,19.5520905 19.1036803,19.9998773 18.5711098,19.9998773 L7.96432677,19.9998773 C7.43179012,19.9998773 7,19.5520905 7,18.9998247 C7,18.4475589 7.43175632,17.9997721 7.96432677,17.9997721 L18.5711098,17.9997721 Z M15.6784338,22.9997195 C16.2109704,22.9997195 16.6427605,23.4475064 16.6427605,23.9997721 C16.6427605,24.5520379 16.2110042,24.9998247 15.6784338,24.9998247 L7.96436057,24.9998247 C7.43182393,24.9998247 7.00003381,24.5520379 7.00003381,23.9997721 C7.00003381,23.4475064 7.43179012,22.9997195 7.96436057,22.9997195 L15.6784338,22.9997195 Z" id="Combined-Shape" fill="#49A5FF" fill-rule="nonzero"></path>
        <g id="身份证-2" transform="translate(7.000000, 11.000000)"></g>
    </g>
</svg>