<?xml version="1.0" encoding="UTF-8"?>
<svg width="30px" height="30px" viewBox="0 0 30 30" version="1.1" xmlns="http://www.w3.org/2000/svg" xmlns:xlink="http://www.w3.org/1999/xlink">
    <!-- Generator: Sketch 51 (57462) - http://www.bohemiancoding.com/sketch -->
    <title>icon/business/jiaoyibm</title>
    <desc>Created with Sketch.</desc>
    <defs>
        <linearGradient x1="0%" y1="0%" x2="97.0849892%" y2="97.0849892%" id="linearGradient-1">
            <stop stop-color="#5ADC97" offset="0%"></stop>
            <stop stop-color="#46BC90" offset="100%"></stop>
        </linearGradient>
    </defs>
    <g id="icon/business/jiaoyibm" stroke="none" stroke-width="1" fill="none" fill-rule="evenodd">
        <g id="Icon/business/jiesuanyh">
            <rect id="Rectangle-2" x="0" y="0" width="30" height="30"></rect>
        </g>
        <g id="编码" transform="translate(2.000000, 2.000000)">
            <path d="M0,4.22608696 L0,21.7884058 C0,24.1072464 1.88115942,25.9884058 4.2,25.9884058 L21.7768116,25.9884058 C24.0956522,25.9884058 25.9768116,24.1072464 25.9768116,21.7884058 L25.9768116,4.22608696 C25.9768116,1.90724638 24.0956522,0.0260869565 21.7768116,0.0260869565 L4.2,0.0260869565 C1.88115942,0.0260869565 0,1.90724638 0,4.22608696 Z" id="Shape" fill="url(#linearGradient-1)"></path>
            <path d="M22.3536232,15.3507246 C22.3536232,15.6753623 22.0666667,15.8927536 21.6318841,15.8927536 C21.2,15.8927536 20.9101449,15.6753623 20.9101449,15.3507246 L20.9101449,7.77971014 C20.9101449,7.45507246 21.2,7.23768116 21.6318841,7.23768116 C22.0637681,7.23768116 22.3536232,7.45507246 22.3536232,7.77971014 L22.3536232,15.3507246 Z M21.6347826,18.7768116 L4.32753623,18.7768116 C3.89565217,18.7768116 3.6057971,18.4869565 3.6057971,18.0550725 C3.6057971,17.6231884 3.89275362,17.3333333 4.32753623,17.3333333 L21.6347826,17.3333333 C22.0666667,17.3333333 22.3565217,17.6231884 22.3565217,18.0550725 C22.3536232,18.4869565 22.0666667,18.7768116 21.6347826,18.7768116 Z M3.6057971,7.77971014 C3.6057971,7.45507246 3.89275362,7.23768116 4.32753623,7.23768116 C4.75942029,7.23768116 5.04927536,7.45507246 5.04927536,7.77971014 L5.04927536,15.3507246 C5.04927536,15.6753623 4.75942029,15.8927536 4.32753623,15.8927536 C3.89565217,15.8927536 3.6057971,15.6753623 3.6057971,15.3507246 L3.6057971,7.77971014 Z M6.48985507,7.77971014 C6.48985507,7.45507246 6.77971014,7.23768116 7.2115942,7.23768116 L8.65507246,7.23768116 C9.08695652,7.23768116 9.37681159,7.45507246 9.37681159,7.77971014 L9.37681159,15.3507246 C9.37681159,15.6753623 9.08695652,15.8927536 8.65507246,15.8927536 L7.2115942,15.8927536 C6.77971014,15.8927536 6.48985507,15.6753623 6.48985507,15.3507246 L6.48985507,7.77971014 Z M10.8173913,7.77971014 C10.8173913,7.45507246 11.1043478,7.23768116 11.5391304,7.23768116 C11.973913,7.23768116 12.2608696,7.45507246 12.2608696,7.77971014 L12.2608696,15.3507246 C12.2608696,15.6753623 11.9710145,15.8927536 11.5391304,15.8927536 C11.1072464,15.8927536 10.8173913,15.6753623 10.8173913,15.3507246 L10.8173913,7.77971014 Z M13.7014493,7.77971014 C13.7014493,7.45507246 13.9913043,7.23768116 14.4231884,7.23768116 C14.8550725,7.23768116 15.1449275,7.45507246 15.1449275,7.77971014 L15.1449275,15.3507246 C15.1449275,15.6753623 14.8550725,15.8927536 14.4231884,15.8927536 C13.9913043,15.8927536 13.7014493,15.6753623 13.7014493,15.3507246 L13.7014493,7.77971014 Z M16.5855072,7.77971014 C16.5855072,7.45507246 16.8753623,7.23768116 17.3072464,7.23768116 L18.7507246,7.23768116 C19.1826087,7.23768116 19.4724638,7.45507246 19.4724638,7.77971014 L19.4724638,15.3507246 C19.4724638,15.6753623 19.1826087,15.8927536 18.7507246,15.8927536 L17.3072464,15.8927536 C16.8753623,15.8927536 16.5855072,15.6753623 16.5855072,15.3507246 L16.5855072,7.77971014 Z" id="Shape" fill="#FFFFFF" fill-rule="nonzero"></path>
        </g>
    </g>
</svg>