<?xml version="1.0" encoding="UTF-8"?>
<svg width="30px" height="30px" viewBox="0 0 30 30" version="1.1" xmlns="http://www.w3.org/2000/svg" xmlns:xlink="http://www.w3.org/1999/xlink">
    <!-- Generator: Sketch 51 (57462) - http://www.bohemiancoding.com/sketch -->
    <title>icon/business/jibenzl</title>
    <desc>Created with Sketch.</desc>
    <defs>
        <linearGradient x1="3.26888045%" y1="3.26888045%" x2="97.14974%" y2="97.14974%" id="linearGradient-1">
            <stop stop-color="#FFC443" stop-opacity="0.984459918" offset="0%"></stop>
            <stop stop-color="#FFA72A" offset="100%"></stop>
        </linearGradient>
    </defs>
    <g id="icon/business/jibenzl" stroke="none" stroke-width="1" fill="none" fill-rule="evenodd">
        <g id="icon/business/busic-info" transform="translate(3.000000, 2.000000)" fill="url(#linearGradient-1)" fill-rule="nonzero">
            <path d="M21.4597773,3.19124755 C21.4597773,3.19124755 21.4597773,3.19124755 21.4597773,3.19124755 L15.8748905,3.19124755 C15.4665332,1.06039842 13.4007256,-0.338251484 11.2568497,0.0711823671 C9.66845988,0.373027743 8.42537219,1.610295 8.12210684,3.19124755 L2.54022269,3.19124755 C1.13799574,3.19124755 0,4.32391489 0,5.71957624 L0,23.4716713 C0,24.8673327 1.13799574,26 2.54022269,26 L21.4597773,26 C22.8620043,26 24,24.8673327 24,23.4716713 L24,5.71957624 C24,4.32391491 22.8620043,3.19124755 21.4597773,3.19124755 Z M10.5452271,3.19124755 C10.9625923,2.39628842 11.9444514,2.09145446 12.7431503,2.50387687 C13.5418491,2.91928783 13.8481171,3.89654963 13.4337545,4.69150879 C13.0163894,5.48646791 12.0345302,5.79130188 11.2358314,5.37887947 C10.6953584,5.09795405 10.3560616,4.53909181 10.3620668,3.92942388 C10.3620668,3.67240704 10.425122,3.41837873 10.5452271,3.19124755 Z M11.9984987,7.17617931 C14.2624797,7.17617931 16.097085,9.00219447 16.097085,11.2555749 C16.097085,13.5089553 14.2624797,15.3379591 11.9984987,15.3379591 C9.73451771,15.3379591 7.89991243,13.5119439 7.89690979,11.2585635 C7.89991243,9.00518303 9.73451771,7.17617931 11.9984987,7.17617931 Z M21.9011635,22.543397 L2.09883646,22.543397 L2.09883646,21.5661352 L2.10183908,21.5661352 C4.31477541,18.5028528 7.92093078,16.5064892 12.0015013,16.5064892 C16.0820718,16.5064892 19.6882272,18.5028527 21.9011635,21.5661352 L21.9041661,21.5661352 L21.9041662,22.543397 L21.9011635,22.543397 Z" id="Shape"></path>
        </g>
    </g>
</svg>