<?xml version="1.0" encoding="UTF-8"?>
<svg width="42px" height="42px" viewBox="0 0 42 42" version="1.1" xmlns="http://www.w3.org/2000/svg" xmlns:xlink="http://www.w3.org/1999/xlink">
    <!-- Generator: Sketch 51 (57462) - http://www.bohemiancoding.com/sketch -->
    <title>00</title>
    <desc>Created with Sketch.</desc>
    <defs></defs>
    <g id="我的基本资料" stroke="none" stroke-width="1" fill="none" fill-rule="evenodd">
        <g id="我的基本资料／账户类型选择" transform="translate(-41.000000, -131.000000)">
            <rect fill="#F6F6F6" x="0" y="0" width="375" height="667"></rect>
            <g id="Group-2" transform="translate(12.000000, 100.000000)">
                <g id="00" transform="translate(30.000000, 32.000000)">
                    <path d="M25.3781687,19.0498193 C25.7562182,18.7283167 26.1118589,18.3812563 26.4424194,18.0113092 C26.8777011,17.5241634 27.2694949,16.9973331 27.6117017,16.4369175 M28.9110243,13.2580597 C29.0930035,12.4717036 29.1891892,11.6524899 29.1891892,10.8108108 C29.1891892,4.84016487 24.3490243,0 18.3783784,0 C12.4077324,0 7.56756757,4.84016487 7.56756757,10.8108108 C7.56756757,16.7814568 12.4077324,21.6216216 18.3783784,21.6216216" id="Oval-2" stroke="#49A5FF" stroke-width="2" stroke-linecap="round"></path>
                    <path d="M16.2162162,4.32432432 C14.9816579,4.9856909 13.9325757,5.99578061 13.1769852,7.23679485 M12.3143026,9.13690701 C12.0405701,10.0001887 11.8918919,10.9271049 11.8918919,11.8918919" id="Oval-2" stroke="#FF3C5F" stroke-width="2" stroke-linecap="round"></path>
                    <path d="M32.4324324,26.3509715 C28.9364205,23.4010324 24.4101489,21.6216216 19.4659316,21.6216216 C14.7154807,21.6216216 10.3508585,23.2642933 6.91517256,26.0095726 M4.46488387,28.3295093 C3.22790093,29.7152245 2.18213439,31.2735311 1.36871857,32.9635253 C1.23492478,33.2415021 0.252719437,35.7408838 0,36.7567568" id="Oval-2" stroke="#49A5FF" stroke-width="2" stroke-linecap="round"></path>
                    <circle id="Oval-5" stroke="#49A5FF" stroke-width="1.5" fill="#FFFFFF" cx="32" cy="32" r="8"></circle>
                    <path d="M7.56756757,32.4324324 C6.50014442,32.9986305 5.51222157,33.6571786 4.62057333,34.3943068 C4.13158637,34.7985538 3.67155412,35.2264338 3.24324324,35.6756757" id="Oval-2" stroke="#FF3C5F" stroke-width="2" stroke-linecap="round" transform="translate(5.405405, 34.054054) rotate(-19.000000) translate(-5.405405, -34.054054) "></path>
                    <path d="M32.3565411,27.8903754 L33.2774843,27.8903754 L33.2774843,32.7759595 L32.3565411,32.7759595 L32.3565411,34.3288738 L31.4518771,34.3288738 L31.4518771,32.7759595 L30.5615017,32.7759595 L30.5615017,27.8903754 L31.4518771,27.8903754 L31.4518771,27 L32.3565411,27 L32.3565411,27.8903754 Z M35.9180428,30.5615017 L36.838986,30.5615017 L36.838986,35.4470858 L35.9180428,35.4470858 L35.9180428,36.1096246 L35.0133787,36.1096246 L35.0133787,35.4470858 L34.1230033,35.4470858 L34.1230033,30.5615017 L35.0133787,30.5615017 L35.0133787,28.7807508 L35.9180428,28.7807508 L35.9180428,30.5615017 Z M28.7950395,30.5615017 L29.7159827,30.5615017 L29.7159827,35.4470858 L28.7950395,35.4470858 L28.7950395,37 L27.8903754,37 L27.8903754,35.4470858 L27,35.4470858 L27,30.5615017 L27.8903754,30.5615017 L27.8903754,29.6711262 L28.7950395,29.6711262 L28.7950395,30.5615017 Z" id="Combined-Shape" fill="#49A5FF"></path>
                </g>
            </g>
        </g>
    </g>
</svg>