<?xml version="1.0" encoding="UTF-8"?>
<svg width="30px" height="30px" viewBox="0 0 30 30" version="1.1" xmlns="http://www.w3.org/2000/svg" xmlns:xlink="http://www.w3.org/1999/xlink">
    <!-- Generator: Sketch 51 (57462) - http://www.bohemiancoding.com/sketch -->
    <title>icon/business/qihuozh</title>
    <desc>Created with Sketch.</desc>
    <defs>
        <linearGradient x1="8.24428913%" y1="8.24428913%" x2="98.5102784%" y2="98.5102784%" id="linearGradient-1">
            <stop stop-color="#FFA361" offset="0%"></stop>
            <stop stop-color="#FF6F38" offset="98.3855672%"></stop>
        </linearGradient>
    </defs>
    <g id="icon/business/qihuozh" stroke="none" stroke-width="1" fill="none" fill-rule="evenodd">
        <g id="Icon/business/jiesuanyh">
            <rect id="Rectangle-2" x="0" y="0" width="30" height="30"></rect>
            <g id="icon/me/normal" transform="translate(1.000000, 1.000000)" fill="url(#linearGradient-1)" fill-rule="nonzero">
                <path d="M21.8405589,18.2472255 L21.8405589,17.7333333 L21.078523,17.7333333 L21.078523,18.2472255 L20.316487,18.2472255 L20.316487,22.3625549 L21.078523,22.3625549 L21.078523,23.9067465 L21.8405589,23.9067465 L21.8405589,22.3625549 L22.6042715,22.3625549 L22.6042715,18.2472255 L21.8405589,18.2472255 Z M24.8903792,20.3053094 L24.8903792,18.7619561 L24.1283433,18.7619561 L24.1283433,20.3053094 L23.3663074,20.3053094 L23.3663074,24.4206387 L24.1283433,24.4206387 L24.1283433,24.9353693 L24.8903792,24.9353693 L24.8903792,24.4206387 L25.6540918,24.4206387 L25.6540918,20.3053094 L24.8903792,20.3053094 Z M18.7907385,20.3053094 L18.7907385,19.2766866 L18.0287026,19.2766866 L18.0287026,20.3053094 L17.2666667,20.3053094 L17.2666667,24.4206387 L18.0287026,24.4206387 L18.0287026,25.4500998 L18.7907385,25.4500998 L18.7907385,24.4206387 L19.5544511,24.4206387 L19.5544511,20.3053094 L18.7907385,20.3053094 Z M14.3111861,26.9607428 C13.9935023,26.9626894 13.7139845,26.962963 13.4814815,26.962963 C10.529692,26.962963 3.61489952e-16,26.9188677 0,23.9670782 C0,20.1613423 4.41518715,15.1953627 10.3513473,13.8376554 C7.77795736,12.6901855 5.99176955,10.1716594 5.99176955,7.24904662 C5.99176955,3.24581709 9.34498775,0 13.4818492,0 C17.6179752,0 20.9711934,3.24581709 20.9711934,7.24904662 C20.9711934,9.44851633 19.9595661,11.4191271 18.3622272,12.7487311 C14.8199046,13.954202 12.2716049,17.309137 12.2716049,21.2592593 C12.2716049,23.4236825 13.0366972,25.409409 14.3111861,26.9607428 Z M21.2592593,28 C17.5364509,28 14.5185185,24.9820676 14.5185185,21.2592593 C14.5185185,17.5364509 17.5364509,14.5185185 21.2592593,14.5185185 C24.9820676,14.5185185 28,17.5364509 28,21.2592593 C28,24.9820676 24.9820676,28 21.2592593,28 Z" id="Combined-Shape"></path>
            </g>
        </g>
    </g>
</svg>