<?xml version="1.0" encoding="UTF-8"?>
<svg width="22px" height="22px" viewBox="0 0 22 22" version="1.1" xmlns="http://www.w3.org/2000/svg" xmlns:xlink="http://www.w3.org/1999/xlink">
    <!-- Generator: Sketch 51 (57462) - http://www.bohemiancoding.com/sketch -->
    <title>icon/general/question</title>
    <desc>Created with Sketch.</desc>
    <defs></defs>
    <g id="icon/general/question" stroke="none" stroke-width="1" fill="none" fill-rule="evenodd">
        <g fill="#49A5FF" fill-rule="nonzero" id="Combined-Shape">
            <path d="M11,0 C17.0866667,0 22,4.91333333 22,11 C22,17.0866667 17.0866667,22 11,22 C4.91333333,22 0,17.0866667 0,11 C0,4.91333333 4.91333333,0 11,0 Z M10.8660065,14 C10.5874294,14 10.3784965,14.0714286 10.1695635,14.2857143 C9.96063065,14.4285714 9.89098636,14.7142857 9.89098636,15 C9.89098636,15.2857143 9.96063065,15.5 10.1695635,15.7142857 C10.3784964,15.9285714 10.5874293,16 10.8660065,16 C11.1445838,16 11.3535166,15.9285714 11.5624495,15.7142857 C11.7713824,15.5 11.8410267,15.2857143 11.8410267,15 C11.8410267,14.7142857 11.7713824,14.5 11.5624495,14.2857143 C11.4231609,14.1428571 11.1445837,14 10.8660065,14 Z M11.0749394,6 C10.0999193,6 9.33383198,6.28571428 8.77667758,6.85714286 C8.35881179,7.21428572 8.14987889,7.71428571 8.01059029,8.35714286 C7.94094599,8.78571428 8.21952318,9.28571428 8.70703327,9.2857143 C9.05525477,9.2857143 9.33383196,9.00000002 9.40347627,8.64285715 C9.47312056,8.35714288 9.54276488,8.07142858 9.68205346,7.85714286 C9.96063065,7.5 10.3784964,7.28571428 11.0052951,7.28571428 C11.4928052,7.28571428 11.8410267,7.42857143 12.1196039,7.71428571 C12.3981811,7.99999999 12.5374697,8.35714286 12.5374697,8.85714287 C12.5374697,9.21428573 12.3981811,9.57142858 12.1892482,9.85714285 L11.9803153,10.1428572 C11.1445837,10.9285714 10.6570737,11.5 10.4481408,11.8571429 C10.3088522,12.2142857 10.1695636,12.6428572 10.1695635,13.1428572 L10.1695635,13.3571429 L11.6320938,13.3571429 L11.6320938,13.1428572 C11.6320938,12.7857143 11.7017381,12.5 11.8410267,12.2142857 C11.9803153,12 12.1196039,11.7142857 12.3981811,11.5 C13.0249798,10.9285714 13.3732013,10.5714286 13.5124899,10.4285714 C13.8607114,10 14,9.42857143 14,8.78571428 C14,7.92857143 13.7214228,7.28571428 13.2339127,6.78571429 C12.6767583,6.21428571 11.9803153,6 11.0749394,6 Z"></path>
        </g>
    </g>
</svg>