<?xml version="1.0" encoding="UTF-8"?>
<svg width="30px" height="30px" viewBox="0 0 30 30" version="1.1" xmlns="http://www.w3.org/2000/svg" xmlns:xlink="http://www.w3.org/1999/xlink">
    <!-- Generator: Sketch 51 (57462) - http://www.bohemiancoding.com/sketch -->
    <title>icon/business/shidanxpg</title>
    <desc>Created with Sketch.</desc>
    <defs>
        <linearGradient x1="0%" y1="0%" x2="97.0849892%" y2="97.0849892%" id="linearGradient-1">
            <stop stop-color="#54C9FF" offset="0%"></stop>
            <stop stop-color="#389EFB" offset="100%"></stop>
        </linearGradient>
    </defs>
    <g id="icon/business/shidanxpg" stroke="none" stroke-width="1" fill="none" fill-rule="evenodd">
        <g id="icon/business/huifang" transform="translate(2.000000, 2.000000)" fill="url(#linearGradient-1)">
            <path d="M5,0 L21,0 C23.7614237,-5.07265313e-16 26,2.23857625 26,5 L26,21 C26,23.7614237 23.7614237,26 21,26 L5,26 C2.23857625,26 3.38176876e-16,23.7614237 0,21 L0,5 C-3.38176876e-16,2.23857625 2.23857625,5.07265313e-16 5,0 Z M6.5,4.33333333 C5.30338304,4.33333333 4.33333333,5.30338304 4.33333333,6.5 C4.33333333,7.69661696 5.30338304,8.66666667 6.5,8.66666667 L19.5,8.66666667 C20.696617,8.66666667 21.6666667,7.69661696 21.6666667,6.5 C21.6666667,5.30338304 20.696617,4.33333333 19.5,4.33333333 L6.5,4.33333333 Z M6.5,10.8333333 C5.30338304,10.8333333 4.33333333,11.803383 4.33333333,13 C4.33333333,14.196617 5.30338304,15.1666667 6.5,15.1666667 C7.69661696,15.1666667 8.66666667,14.196617 8.66666667,13 C8.66666667,11.803383 7.69661696,10.8333333 6.5,10.8333333 Z M6.5,11.9166667 C7.09830848,11.9166667 7.58333333,12.4016915 7.58333333,13 C7.58333333,13.5983085 7.09830848,14.0833333 6.5,14.0833333 C5.90169152,14.0833333 5.41666667,13.5983085 5.41666667,13 C5.41666667,12.4016915 5.90169152,11.9166667 6.5,11.9166667 Z M6.5,17.3333333 C5.30338304,17.3333333 4.33333333,18.303383 4.33333333,19.5 C4.33333333,20.696617 5.30338304,21.6666667 6.5,21.6666667 C7.69661696,21.6666667 8.66666667,20.696617 8.66666667,19.5 C8.66666667,18.303383 7.69661696,17.3333333 6.5,17.3333333 Z M6.5,18.4166667 C7.09830848,18.4166667 7.58333333,18.9016915 7.58333333,19.5 C7.58333333,20.0983085 7.09830848,20.5833333 6.5,20.5833333 C5.90169152,20.5833333 5.41666667,20.0983085 5.41666667,19.5 C5.41666667,18.9016915 5.90169152,18.4166667 6.5,18.4166667 Z M15.71375,18.85 L13.08125,16.78625 L11.9166667,17.7233333 L16.46125,22.3491667 C17.24125,20.345 19.7220833,16.42875 22.75,13.6445833 L22.47375,13 C19.1804167,15.0204167 16.7916667,17.5716667 15.71375,18.85 Z" id="Combined-Shape"></path>
        </g>
    </g>
</svg>