<?xml version="1.0" encoding="UTF-8"?>
<svg width="40px" height="40px" viewBox="0 0 40 40" version="1.1" xmlns="http://www.w3.org/2000/svg" xmlns:xlink="http://www.w3.org/1999/xlink">
    <!-- Generator: Sketch 51 (57462) - http://www.bohemiancoding.com/sketch -->
    <title>Icon/General/Sun</title>
    <desc>Created with Sketch.</desc>
    <defs></defs>
    <g id="Icon/General/Sun" stroke="none" stroke-width="1" fill="none" fill-rule="evenodd">
        <g id="sun" fill="#49A5FF" fill-rule="nonzero">
            <path d="M19.9494501,32.0948862 C13.270339,32.0948862 7.82159056,26.6637144 7.82159056,19.9670267 C7.82159056,13.2879156 13.2527624,7.83916715 19.9494501,7.83916715 C26.6285611,7.83916715 32.0773096,13.270339 32.0773096,19.9670267 C32.0773097,26.6637143 26.6461378,32.0948862 19.9494501,32.0948862 M19.9494501,9.57925134 C14.2194759,9.57925134 9.56167474,14.2370525 9.56167474,19.9670267 C9.56167474,25.6970009 14.2194759,30.354802 19.9494501,30.354802 C25.6794243,30.354802 30.3372254,25.6970009 30.3372254,19.9670267 C30.354802,14.2546291 25.6794243,9.57925134 19.9494501,9.57925134 M39.9340534,19.9846033 C39.9340534,20.6349378 38.8267271,21.1798127 37.4733283,21.1798127 L35.8562803,21.1798127 C34.5028815,21.1798127 33.3955552,20.6349378 33.3955552,19.9846033 C33.3955552,19.3342688 34.5028816,18.789394 35.8562803,18.789394 L37.4733283,18.789394 C38.8267271,18.789394 39.9340534,19.3166922 39.9340534,19.9846033 M6.5384982,19.9846033 C6.5384982,20.6349378 5.43117187,21.1798127 4.07777304,21.1798127 L2.46072511,21.1798127 C1.10732628,21.1798127 0,20.6349378 0,19.9846033 C0,19.3342688 1.10732633,18.789394 2.46072511,18.789394 L4.07777304,18.789394 C5.43117187,18.789394 6.53849815,19.3166922 6.5384982,19.9846033 M37.262409,9.98351333 C37.5963645,10.5459648 36.8933002,11.5829847 35.7332441,12.2508958 L34.3271154,13.0594198 C33.1494827,13.7449074 31.9191201,13.8327905 31.5851646,13.2527624 C31.251209,12.690311 31.9542733,11.6532911 33.1143295,10.98538 L34.5204582,10.176856 C35.6980909,9.50894491 36.9284534,9.42106185 37.262409,9.98351333 M8.33131221,26.6988675 C8.66526779,27.261319 7.96220345,28.2983389 6.8021473,28.96625 L5.39601864,29.774774 C4.21838589,30.4602617 2.98802336,30.5481447 2.65406783,29.9681166 C2.32011226,29.4056652 3.02317659,28.3686453 4.1832327,27.7007342 L5.58936136,26.8922102 C6.76699411,26.2067225 7.99735664,26.1188395 8.33131221,26.6988675 M29.95054,2.67164443 C30.5129915,3.0056 30.4251085,4.23596253 29.7571974,5.41359528 L28.9486734,6.81972389 C28.2631857,7.99735664 27.2437424,8.68284433 26.6812909,8.34888881 C26.1188395,8.01493324 26.2067225,6.78457071 26.8746336,5.60693796 L27.6831576,4.20080929 C28.3510687,3.04075319 29.370512,2.35526545 29.95054,2.67164443 M13.2351858,31.6027412 C13.7976373,31.9366967 13.7097543,33.1670593 13.0418432,34.344692 L12.2333192,35.7508207 C11.5478315,36.9284534 10.5283882,37.6139411 9.96593674,37.2799856 C9.4034853,36.94603 9.49136832,35.7156675 10.1592794,34.5380347 L10.9678034,33.1319061 C11.6532911,31.97185 12.6727344,31.2687856 13.2351858,31.6027412 M19.9494501,-3.55271368e-15 C20.5997846,-3.55271368e-15 21.1446594,1.10732633 21.1446594,2.46072511 L21.1446594,4.07777304 C21.1446594,5.43117187 20.5997846,6.53849815 19.9494501,6.53849815 C19.2991156,6.53849815 18.7542407,5.43117182 18.7542407,4.07777304 L18.7542407,2.46072511 C18.7542407,1.10732628 19.2991156,-3.55271368e-15 19.9494501,-3.55271368e-15 M19.9494501,33.3955552 C20.5997846,33.3955552 21.1446594,34.5028815 21.1446594,35.8562803 L21.1446594,37.4733283 C21.1446594,38.8267271 20.5997846,39.9340534 19.9494501,39.9340534 C19.2991156,39.9340534 18.7542407,38.8267271 18.7542407,37.4733283 L18.7542407,35.8562803 C18.7542407,34.5028815 19.2991156,33.3955552 19.9494501,33.3955552 M9.96593674,2.67164443 C10.5283882,2.33768886 11.5654081,3.04075319 12.2333192,4.20080929 L13.0418432,5.60693796 C13.7273309,6.78457071 13.8152139,8.01493324 13.2351858,8.34888881 C12.6727344,8.68284438 11.6357145,7.97978005 10.9678034,6.81972389 L10.1592794,5.41359528 C9.49136832,4.23596253 9.40348526,3.0056 9.96593674,2.67164443 M26.6637144,31.6027412 C27.2261658,31.2687856 28.2631857,31.9718499 28.9310968,33.1319061 L29.7396207,34.5380347 C30.4251084,35.7156675 30.5129915,36.94603 29.9329635,37.2799856 C29.370512,37.6139412 28.3334921,36.9108768 27.665581,35.7508207 L26.857057,34.344692 C26.1891459,33.1670593 26.1012629,31.9366967 26.6637144,31.6027412 M2.65406783,9.98351333 C2.98802341,9.4210619 4.21838594,9.50894491 5.39601864,10.176856 L6.8021473,10.98538 C7.97978005,11.6708677 8.66526774,12.690311 8.33131221,13.2527624 C7.99735664,13.8152139 6.76699411,13.7273309 5.58936136,13.0594198 L4.1832327,12.2508958 C3.02317659,11.5829847 2.32011226,10.5635414 2.65406783,9.98351333 M31.5851646,26.6988675 C31.9191201,26.1364161 33.1494827,26.2242991 34.3271154,26.8922102 L35.7332441,27.7007342 C36.9108768,28.3862219 37.5963645,29.4056652 37.262409,29.9681166 C36.9284534,30.5305681 35.6980909,30.4426851 34.5204582,29.774774 L33.1143295,28.96625 C31.9366967,28.2807623 31.2512091,27.261319 31.5851646,26.6988675" id="Shape"></path>
        </g>
    </g>
</svg>