<?xml version="1.0" encoding="UTF-8"?>
<svg width="40px" height="40px" viewBox="0 0 40 40" version="1.1" xmlns="http://www.w3.org/2000/svg" xmlns:xlink="http://www.w3.org/1999/xlink">
    <!-- Generator: Sketch 51 (57462) - http://www.bohemiancoding.com/sketch -->
    <title>Icon/General/Wi-Fi</title>
    <desc>Created with Sketch.</desc>
    <defs></defs>
    <g id="Icon/General/Wi-Fi" stroke="none" stroke-width="1" fill="none" fill-rule="evenodd">
        <g id="icon/Wi-Fi" transform="translate(0.000000, 4.000000)">
            <rect id="Rectangle" stroke="#49A5FF" stroke-width="2" fill="#FFFFFF" x="1" y="1" width="38" height="30" rx="6"></rect>
            <path d="M24.1222763,22.3852484 C24.1220161,22.381346 24.121756,22.377476 24.1214308,22.3736061 C24.1198048,22.3538663 24.1174308,22.3341915 24.1143739,22.3145817 C24.113821,22.310972 24.1131706,22.3073947 24.1125527,22.3038175 C24.1090731,22.2834923 24.1049755,22.2632972 24.0999674,22.2432322 C24.0995446,22.2415086 24.0990243,22.2398175 24.0986015,22.2381265 C24.087382,22.1944191 24.0724227,22.1514923 24.053821,22.1097687 C24.0535283,22.1091508 24.0532682,22.1085004 24.053008,22.1078825 C24.0435771,22.0868744 24.0331381,22.0661915 24.021821,22.0458988 C24.0213657,22.0450533 24.0209104,22.0442402 24.0204226,22.0433947 C24.0090405,22.0231671 23.9967803,22.0032971 23.9835446,21.983915 C23.9832844,21.9835573 23.9830893,21.9831671 23.9828617,21.9828094 C23.9805853,21.9794598 23.9781788,21.9762403 23.9758698,21.9728907 C23.9725853,21.9682728 23.9694308,21.9635573 23.9660487,21.9590045 C23.1091707,20.7209883 21.7030894,19.9825167 20.1983415,19.9825167 C18.5739513,19.9825167 17.0599676,20.854159 16.2406831,22.2586142 C16.2126506,22.3040126 16.1894961,22.3514923 16.1712197,22.4004679 C16.1707969,22.4016061 16.1703416,22.4027443 16.1699189,22.403915 C16.1626669,22.4235898 16.1561953,22.4434923 16.1505042,22.4635573 C16.1498863,22.4657037 16.149366,22.4678175 16.1487807,22.4699638 C16.1380815,22.5090858 16.1303416,22.5488256 16.1255937,22.5888907 C16.1251384,22.5926305 16.1246506,22.5963378 16.1242603,22.6000451 C16.1223091,22.6186142 16.1210408,22.6372159 16.1203579,22.6558825 C16.1201953,22.6600126 16.1201628,22.6641102 16.1200652,22.6682077 C16.1196749,22.6873947 16.11974,22.7066142 16.1206831,22.7257687 C16.1207481,22.7269719 16.1208782,22.7281427 16.1209432,22.729346 C16.1219839,22.748533 16.123805,22.7676549 16.126179,22.7867443 C16.1265042,22.7893134 16.1267644,22.7918825 16.1270896,22.7944516 C16.1297237,22.8140939 16.1331709,22.8336386 16.1372359,22.8530858 C16.1377238,22.8553622 16.1382115,22.8576061 16.1387319,22.85985 C16.1477075,22.9007931 16.159805,22.9411508 16.1751546,22.9805655 C16.1753823,22.9811183 16.1755774,22.9816712 16.1757725,22.982224 C16.1834799,23.0018663 16.1920002,23.0212159 16.2012685,23.0403378 C16.2018864,23.0416061 16.2025042,23.0428419 16.2031221,23.0441102 C16.2215611,23.0816387 16.2430896,23.1179964 16.267675,23.1528582 C16.2690083,23.1547444 16.2702766,23.1566306 16.2716099,23.1584842 C16.2833172,23.1747769 16.2957075,23.1907444 16.3087481,23.2063541 C16.3110245,23.2090858 16.3133985,23.2117525 16.3157075,23.2144517 C16.3291059,23.2300614 16.3429595,23.2453785 16.3577563,23.2601753 L19.4251383,26.3275573 C19.5775935,26.4800125 19.7843903,26.5656711 20.0000326,26.5656711 C20.2156748,26.5656711 20.4224391,26.4800125 20.5749269,26.3275573 L23.8863414,23.0161427 C23.9023089,23.0001753 23.9172682,22.9835899 23.9316097,22.9666793 C23.9334959,22.9644679 23.9354146,22.9622891 23.9372682,22.9600777 C23.9510568,22.9434923 23.9639674,22.9264842 23.9762276,22.9090858 C23.9778861,22.9067119 23.9795446,22.9043379 23.9812032,22.9019639 C23.9935934,22.8840127 24.0052357,22.8657037 24.0159999,22.8470371 C24.0166828,22.8458663 24.0173007,22.8446631 24.0179837,22.8434924 C24.0405853,22.8038501 24.0595772,22.7627444 24.0749593,22.7205981 C24.075252,22.7197525 24.0756097,22.7189395 24.0759024,22.7181265 C24.083317,22.6976387 24.0897885,22.6768908 24.0954796,22.6559802 C24.0960324,22.6538989 24.0966178,22.6518176 24.0971706,22.6497363 C24.1026015,22.629216 24.1072519,22.608533 24.1110568,22.5877525 C24.1114471,22.5856062 24.1117723,22.5834599 24.1121625,22.581281 C24.1158698,22.5600452 24.1188942,22.5387444 24.120878,22.517346 C24.120943,22.5167281 24.120943,22.5161428 24.121008,22.5155249 C24.1228942,22.4947769 24.1238698,22.4739314 24.124195,22.4531184 C24.1242275,22.4505818 24.1243576,22.4480452 24.1243901,22.4455086 C24.1244226,22.4253459 24.1236422,22.4052809 24.1222763,22.3852484 L24.1222763,22.3852484 Z M17.9943741,22.5972484 C18.549561,21.976598 19.3507317,21.6085004 20.1982764,21.6085004 C20.9509268,21.6085004 21.6655284,21.8950045 22.206439,22.3964029 L19.9999675,24.6028743 L17.9943741,22.5972484 L17.9943741,22.5972484 Z" id="Shape" fill="#49A5FF"></path>
        </g>
        <path d="M6.66040085,18.7509259 C6.24567673,19.1156482 5.61381057,19.0751138 5.24908827,18.6603896 C4.88436597,18.2456655 4.92490045,17.6137994 5.33962456,17.2490771 C14.810929,8.91969414 24.6969677,8.91969414 34.6413831,17.2327701 C35.0651133,17.5869891 35.1214632,18.2176416 34.7672441,18.6413718 C34.4130251,19.0651021 33.7823726,19.121452 33.3586424,18.7672329 C24.1632535,11.0803089 15.3826256,11.0803089 6.66040085,18.7509259 Z" id="Path-3" fill="#49A5FF" fill-rule="nonzero"></path>
        <path d="M11.6738575,22.7388697 C11.2657923,23.1110273 10.6332968,23.0819184 10.2611392,22.6738532 C9.88898165,22.265788 9.91809054,21.6332925 10.3261557,21.2611349 C16.5527894,15.5824129 23.1238503,15.5824129 29.6550445,21.2444063 C30.0723487,21.6061737 30.1173701,22.237736 29.7556026,22.6550402 C29.3938352,23.0723444 28.7622729,23.1173658 28.3449687,22.7555983 C22.5720031,17.7509251 17.143064,17.7509251 11.6738575,22.7388697 Z" id="Path-3" fill="#49A5FF" fill-rule="nonzero"></path>
    </g>
</svg>