<?xml version="1.0" encoding="UTF-8"?>
<svg width="30px" height="30px" viewBox="0 0 30 30" version="1.1" xmlns="http://www.w3.org/2000/svg" xmlns:xlink="http://www.w3.org/1999/xlink">
    <!-- Generator: Sketch 51 (57462) - http://www.bohemiancoding.com/sketch -->
    <title>icon/business/xieyixz</title>
    <desc>Created with Sketch.</desc>
    <defs>
        <linearGradient x1="8.24428913%" y1="8.24428913%" x2="98.5102784%" y2="98.5102784%" id="linearGradient-1">
            <stop stop-color="#FFA361" offset="0%"></stop>
            <stop stop-color="#FF6F38" offset="98.3855672%"></stop>
        </linearGradient>
    </defs>
    <g id="icon/business/xieyixz" stroke="none" stroke-width="1" fill="none" fill-rule="evenodd">
        <g id="下载-2" transform="translate(0.000000, 4.000000)" fill="url(#linearGradient-1)" fill-rule="nonzero">
            <path d="M10.3684795,13.1986681 C10.3684795,12.1198668 12.1065483,12.3596004 13.1853496,12.3596004 L13.1853496,8.46392897 C13.1853496,8.16426193 13.3651498,7.9245283 13.5449501,7.80466149 C13.9644839,7.56492786 16.0621532,7.50499445 16.481687,7.80466149 C16.6614872,7.9245283 16.8412875,8.22419534 16.8412875,8.52386238 L16.8412875,12.299667 C18.0399556,12.299667 20.1376249,12 19.5382908,13.5582686 C19.418424,13.8579356 18.5194229,14.6970033 18.2796892,14.8768036 C17.1409545,15.7758047 15.7025527,17.9334073 14.8035516,17.6936737 C14.3840178,17.5738069 13.7846837,16.854606 13.4250832,16.4950055 L12.7058824,15.8956715 L11.3873474,14.5771365 C11.1476138,14.3374029 10.3684795,13.7980022 10.3684795,13.1986681 Z M8.39067703,4.92785794 C7.73140954,4.92785794 7.01220866,4.44839068 5.39400666,5.10765816 C4.01553829,5.70699223 2.81687014,7.20532741 2.81687014,8.58379578 C2.81687014,9.72253052 2.75693674,9.30299667 2.99667037,10.3218646 C1.31853496,11.2208657 2.84217094e-14,13.318535 2.84217094e-14,15.3562708 C2.84217094e-14,17.3940067 0.539400666,18.6526082 1.91786903,19.9711432 C2.87680355,20.9300777 4.37513873,21.709212 6.29300777,21.709212 L22.8945616,21.709212 C25.5915649,21.709212 27.809101,20.3307436 29.127636,18.1132075 C30.1465039,16.4350721 29.9667037,15.4162042 29.9667037,13.5582686 C29.9667037,12 28.7081021,10.1420644 27.5693674,9.18312986 C26.8501665,8.58379578 25.7713651,7.98446171 24.7524972,7.74472808 C24.0332963,7.56492786 24.572697,7.68479467 23.9733629,5.88679245 C23.4938957,4.44839068 23.0144284,3.72918979 22.1154273,2.65038846 C20.9167592,1.21198668 18.2796892,0.013318535 16.2419534,0.013318535 C14.1442841,0.013318535 12.5860155,0.492785794 11.0876804,1.57158713 C10.1287458,2.29078801 8.63041065,3.90899001 8.39067703,4.92785794 Z" id="Shape"></path>
        </g>
    </g>
</svg>