<?xml version="1.0" encoding="UTF-8"?>
<svg width="30px" height="30px" viewBox="0 0 30 30" version="1.1" xmlns="http://www.w3.org/2000/svg" xmlns:xlink="http://www.w3.org/1999/xlink">
    <!-- Generator: Sketch 51 (57462) - http://www.bohemiancoding.com/sketch -->
    <title>icon/business/xiumianhjh</title>
    <desc>Created with Sketch.</desc>
    <defs>
        <linearGradient x1="3.26888045%" y1="3.26888045%" x2="97.14974%" y2="97.14974%" id="linearGradient-1">
            <stop stop-color="#FFC443" stop-opacity="0.984459918" offset="0%"></stop>
            <stop stop-color="#FFA72A" offset="100%"></stop>
        </linearGradient>
    </defs>
    <g id="icon/business/xiumianhjh" stroke="none" stroke-width="1" fill="none" fill-rule="evenodd">
        <g id="休眠账户激活" transform="translate(0.000000, 3.000000)" fill="url(#linearGradient-1)" fill-rule="nonzero">
            <path d="M27.0378151,12.020042 C25.9843649,11.4105827 24.7884719,11.0905618 23.5714286,11.092437 C21.3889009,11.0907973 19.333415,12.1185402 18.0252101,13.8655462 L14.9054622,13.8655462 C14.3311929,13.8656317 13.8657009,14.3311929 13.8657009,14.9054622 C13.8657009,15.4797315 14.3311929,15.9452927 14.9054622,15.9453781 L16.9561765,15.9453781 C16.7451011,16.6184549 16.638027,17.3198132 16.6386555,18.0252101 C16.6363544,19.8403911 17.3483295,21.5835969 18.6207353,22.8781513 L2.38487395,22.8781513 C1.06903362,22.8781513 0,21.6316387 0,20.0967227 L0,2.78142857 C0,1.2465126 1.06903362,0 2.38487395,0 L24.6529412,0 C25.9722479,0 27.0405882,1.2465126 27.0378151,2.78142857 L27.0378151,12.020042 Z M10.497605,15.9453781 C10.6767394,15.9428634 10.8454855,15.8608457 10.9581344,15.7215415 C11.0707833,15.5822372 11.1156756,15.4000647 11.0806513,15.2243697 C10.8075,13.674895 9.66636555,12.4380882 8.19661764,12.0692647 C8.98279412,11.7059874 9.52978991,10.8920798 9.52978991,9.94783614 C9.52978991,8.66596638 8.52315126,7.62605043 7.27941176,7.62605043 C6.03359243,7.62605043 5.0262605,8.66527312 5.0262605,9.9485294 C5.0262605,10.8948529 5.5760294,11.7059874 6.35943276,12.0692647 C4.88968486,12.4380882 3.74924369,13.674895 3.47539917,15.2236765 C3.4102311,15.6008193 3.69378152,15.9453782 4.06468488,15.9453781 L10.497605,15.9453781 Z M21.144958,10.3991597 C21.7192273,10.3990742 22.1847192,9.93351302 22.1847192,9.3592437 C22.1847192,8.78497439 21.7192273,8.31941318 21.144958,8.31932774 L14.9054622,8.31932774 C14.3311929,8.31941318 13.8657009,8.78497439 13.8657009,9.3592437 C13.8657009,9.93351302 14.3311929,10.3990742 14.9054622,10.3991597 L21.144958,10.3991597 Z M23.5714286,23.5714286 C20.5083367,23.5714286 18.0252101,21.088302 18.0252101,18.0252101 C18.0252101,14.9621182 20.5083367,12.4789916 23.5714286,12.4789916 C26.6345205,12.4789916 29.1176471,14.9621182 29.1176471,18.0252101 C29.1176471,21.088302 26.6345205,23.5714286 23.5714286,23.5714286 Z M22.5509244,20.5515126 C23.1188338,19.7634265 23.7252637,19.0038275 24.3680042,18.2754832 C24.662647,17.9413235 24.9385714,17.6376681 25.2034034,17.3638235 C25.442584,17.1163235 25.6803781,16.8896218 25.9084664,16.6760924 C26.2967017,16.3121218 26.7521849,15.9086345 27.0378151,15.7360084 L26.672458,15.2521008 C26.1434874,15.5834874 25.6339286,15.9370588 25.240147,16.2088235 C25.0113655,16.367584 24.7978361,16.5194118 24.597479,16.665 C24.3992017,16.8085084 24.1939916,16.9665756 23.9776891,17.1315756 C23.6019328,17.4192857 23.120105,17.8054412 22.6528361,18.2047689 L21.4811975,17.097605 L20.105042,18.1818908 L22.5509244,20.5515126 Z" id="Shape"></path>
        </g>
    </g>
</svg>