<?xml version="1.0" encoding="UTF-8"?>
<svg width="30px" height="30px" viewBox="0 0 30 30" version="1.1" xmlns="http://www.w3.org/2000/svg" xmlns:xlink="http://www.w3.org/1999/xlink">
    <!-- Generator: Sketch 51 (57462) - http://www.bohemiancoding.com/sketch -->
    <title>icon/business/yinqizh</title>
    <desc>Created with Sketch.</desc>
    <defs>
        <linearGradient x1="0%" y1="0%" x2="97.0849892%" y2="97.0849892%" id="linearGradient-1">
            <stop stop-color="#54C9FF" offset="0%"></stop>
            <stop stop-color="#389EFB" offset="100%"></stop>
        </linearGradient>
    </defs>
    <g id="icon/business/yinqizh" stroke="none" stroke-width="1" fill="none" fill-rule="evenodd">
        <g id="银行卡" transform="translate(1.000000, 3.500000)" fill="url(#linearGradient-1)">
            <path d="M25.4456,0 L2.5544,0 C1.14959999,0 0,1.41156089 0,3.13715266 L0,4.18181818 L28,4.18181818 L28,3.13715266 C28,1.41156089 26.8504,0 25.4456,0 Z M0,7.31818182 L0,19.7493466 C0,21.5373695 1.14959999,23 2.5544,23 L25.4456,23 C26.8504,23 28,21.5373695 28,19.7493466 L28,7.31818182 L0,7.31818182 Z M21.2796032,18.8181818 L20.7407407,14.6363636 L25.3870635,14.6363636 L25.9259259,18.8181818 L21.2796032,18.8181818 Z M2.57407407,12.5454545 L17.1296296,12.5454545 C17.405772,12.5454545 17.6296296,12.7693122 17.6296296,13.0454545 L17.6296296,13.0909091 C17.6296296,13.3670515 17.405772,13.5909091 17.1296296,13.5909091 L2.57407407,13.5909091 C2.2979317,13.5909091 2.07407407,13.3670515 2.07407407,13.0909091 L2.07407407,13.0454545 C2.07407407,12.7693122 2.2979317,12.5454545 2.57407407,12.5454545 Z M2.57407407,16.7272727 L10.9074074,16.7272727 C11.1835498,16.7272727 11.4074074,16.9511304 11.4074074,17.2272727 L11.4074074,17.2727273 C11.4074074,17.5488696 11.1835498,17.7727273 10.9074074,17.7727273 L2.57407407,17.7727273 C2.2979317,17.7727273 2.07407407,17.5488696 2.07407407,17.2727273 L2.07407407,17.2272727 C2.07407407,16.9511304 2.2979317,16.7272727 2.57407407,16.7272727 Z" id="Shape"></path>
        </g>
    </g>
</svg>