<?xml version="1.0" encoding="UTF-8"?>
<svg width="30px" height="30px" viewBox="0 0 30 30" version="1.1" xmlns="http://www.w3.org/2000/svg" xmlns:xlink="http://www.w3.org/1999/xlink">
    <!-- Generator: Sketch 51 (57462) - http://www.bohemiancoding.com/sketch -->
    <title>icon/business/ziguanzh</title>
    <desc>Created with Sketch.</desc>
    <defs>
        <linearGradient x1="0%" y1="0%" x2="97.0849892%" y2="97.0849892%" id="linearGradient-1">
            <stop stop-color="#5ADC97" offset="0%"></stop>
            <stop stop-color="#46BC90" offset="100%"></stop>
        </linearGradient>
    </defs>
    <g id="icon/business/ziguanzh" stroke="none" stroke-width="1" fill="none" fill-rule="evenodd">
        <path d="M15.2889585,27.0349755 C14.9939664,27.036783 14.7344141,27.037037 14.5185185,27.037037 C11.7775712,27.037037 2,26.9960914 2,24.255144 C2,20.7212464 6.09981664,16.1099797 11.6119654,14.8492515 C9.22238898,13.7837436 7.56378601,11.4451123 7.56378601,8.73125758 C7.56378601,5.01397301 10.6774886,2 14.5188599,2 C18.3595484,2 21.473251,5.01397301 21.473251,8.73125758 C21.473251,10.7736223 20.5338828,12.6034751 19.0506396,13.8381075 C15.76134,14.9574733 13.3950617,18.0727701 13.3950617,21.7407407 C13.3950617,23.7505624 14.1055046,25.5944512 15.2889585,27.0349755 Z M21.7407407,28 C18.2838473,28 15.4814815,25.1976342 15.4814815,21.7407407 C15.4814815,18.2838473 18.2838473,15.4814815 21.7407407,15.4814815 C25.1976342,15.4814815 28,18.2838473 28,21.7407407 C28,25.1976342 25.1976342,28 21.7407407,28 Z M22.5792351,22.1621548 L24.4763716,22.1621548 C24.7128399,22.1621548 24.9045354,21.9704594 24.9045354,21.7339911 L24.9045354,21.7339911 C24.9045354,21.4975228 24.7128399,21.3058273 24.4763716,21.3058273 L22.9690784,21.3058273 L24.3568863,18.9712921 C24.4511373,18.8127454 24.3990154,18.6078124 24.2404687,18.5135614 C24.1888356,18.4828671 24.1298798,18.4666667 24.0698122,18.4666667 L24.0612393,18.4666667 C23.7033658,18.4666667 23.3727736,18.6579094 23.1943644,18.968141 L21.8499989,21.3058273 L20.4661149,18.9587591 C20.2863173,18.6538222 19.9587001,18.4666667 19.6047034,18.4666667 L19.586615,18.4666667 C19.4001562,18.4666667 19.2490015,18.6178213 19.2490015,18.8042801 C19.2490015,18.8643171 19.265011,18.9232682 19.29538,18.9750578 L20.6621237,21.3058273 L19.1548304,21.3058273 C18.9183621,21.3058273 18.7266667,21.4975228 18.7266667,21.7339911 L18.7266667,21.7339911 C18.7266667,21.9704594 18.9183621,22.1621548 19.1548304,22.1621548 L21.0703125,22.1621548 L21.2537681,22.5468153 L21.2537681,23.3069776 L19.1548304,23.3069776 C18.9183621,23.3069776 18.7266667,23.4986731 18.7266667,23.7351414 L18.7266667,23.7351414 C18.7266667,23.9716097 18.9183621,24.1633051 19.1548304,24.1633051 L21.2491817,24.1633051 L21.2491817,25.3095408 C21.2491817,25.6223656 21.5027763,25.8759601 21.815601,25.8759601 L21.815601,25.8759601 C22.1284257,25.8759601 22.3820203,25.6223656 22.3820203,25.3095408 L22.3820203,24.1541465 L24.4763716,24.1541465 C24.7128399,24.1541465 24.9045354,23.9624511 24.9045354,23.7259828 L24.9045354,23.7259828 C24.9045354,23.4895145 24.7128399,23.2978191 24.4763716,23.2978191 L22.3820203,23.2978191 L22.3820203,22.5376567 L22.5792351,22.1621548 Z" id="Combined-Shape" fill="url(#linearGradient-1)"></path>
    </g>
</svg>