<?xml version="1.0" encoding="UTF-8"?>
<svg width="42px" height="42px" viewBox="0 0 42 42" version="1.1" xmlns="http://www.w3.org/2000/svg" xmlns:xlink="http://www.w3.org/1999/xlink">
    <!-- Generator: Sketch 51 (57462) - http://www.bohemiancoding.com/sketch -->
    <title>00</title>
    <desc>Created with Sketch.</desc>
    <defs></defs>
    <g id="我的基本资料" stroke="none" stroke-width="1" fill="none" fill-rule="evenodd">
        <g id="我的基本资料／账户类型选择" transform="translate(-41.000000, -247.000000)">
            <rect fill="#F6F6F6" x="0" y="0" width="375" height="667"></rect>
            <g id="Group" transform="translate(12.000000, 216.000000)">
                <g id="00" transform="translate(30.000000, 32.000000)">
                    <path d="M25.3781687,19.0498193 C25.7562182,18.7283167 26.1118589,18.3812563 26.4424194,18.0113092 C26.8777011,17.5241634 27.2694949,16.9973331 27.6117017,16.4369175 M28.9110243,13.2580597 C29.0930035,12.4717036 29.1891892,11.6524899 29.1891892,10.8108108 C29.1891892,4.84016487 24.3490243,0 18.3783784,0 C12.4077324,0 7.56756757,4.84016487 7.56756757,10.8108108 C7.56756757,16.7814568 12.4077324,21.6216216 18.3783784,21.6216216" id="Oval-2" stroke="#49A5FF" stroke-width="2" stroke-linecap="round"></path>
                    <path d="M16.2162162,4.32432432 C14.9816579,4.9856909 13.9325757,5.99578061 13.1769852,7.23679485 M12.3143026,9.13690701 C12.0405701,10.0001887 11.8918919,10.9271049 11.8918919,11.8918919" id="Oval-2" stroke="#FF3C5F" stroke-width="2" stroke-linecap="round"></path>
                    <path d="M32.4324324,26.3509715 C28.9364205,23.4010324 24.4101489,21.6216216 19.4659316,21.6216216 C14.7154807,21.6216216 10.3508585,23.2642933 6.91517256,26.0095726 M4.46488387,28.3295093 C3.22790093,29.7152245 2.18213439,31.2735311 1.36871857,32.9635253 C1.23492478,33.2415021 0.252719437,35.7408838 0,36.7567568" id="Oval-2" stroke="#49A5FF" stroke-width="2" stroke-linecap="round"></path>
                    <circle id="Oval-5" stroke="#49A5FF" stroke-width="1.5" fill="#FFFFFF" cx="32" cy="32" r="8"></circle>
                    <path d="M33.1754794,32.4888752 L35.4799135,32.4888752 C35.7671493,32.4888752 36,32.2560245 36,31.9687886 L36,31.9687886 C36,31.6815528 35.7671493,31.4487021 35.4799135,31.4487021 L33.6490183,31.4487021 L35.3347758,28.6129638 C35.4492616,28.4203786 35.3859496,28.1714484 35.1933644,28.0569626 C35.1306461,28.0196786 35.0590331,28 34.9860695,28 L34.8514607,28 C34.4935872,28 34.162995,28.1912427 33.9845858,28.5014743 L32.2896829,31.4487021 L30.5463996,28.4920924 C30.366602,28.1871555 30.0389848,28 29.6849881,28 L29.5403714,28 C29.3138817,28 29.1302755,28.1836062 29.1302755,28.4100959 C29.1302755,28.4830223 29.1497221,28.5546296 29.186611,28.617538 L30.8467819,31.4487021 L29.0158867,31.4487021 C28.7286509,31.4487021 28.4958002,31.6815528 28.4958002,31.9687886 L28.4958002,31.9687886 C28.4958002,32.2560245 28.7286509,32.4888752 29.0158867,32.4888752 L31.342605,32.4888752 L31.5654469,32.9561187 L31.5654469,33.8794808 L29.0158867,33.8794808 C28.7286509,33.8794808 28.4958002,34.1123315 28.4958002,34.3995674 L28.4958002,34.3995674 C28.4958002,34.6868032 28.7286509,34.9196539 29.0158867,34.9196539 L31.5598758,34.9196539 L31.5598758,36.3119757 C31.5598758,36.691961 31.8679148,37 32.2479001,37 L32.2479001,37 C32.6278854,37 32.9359243,36.691961 32.9359243,36.3119757 L32.9359243,34.908529 L35.4799135,34.908529 C35.7671493,34.908529 36,34.6756784 36,34.3884425 L36,34.3884425 C36,34.1012067 35.7671493,33.868356 35.4799135,33.868356 L32.9359243,33.868356 L32.9359243,32.9449938 L33.1754794,32.4888752 Z" id="Path" fill="#49A5FF"></path>
                    <path d="M7.56756757,32.4324324 C6.50014442,32.9986305 5.51222157,33.6571786 4.62057333,34.3943068 C4.13158637,34.7985538 3.67155412,35.2264338 3.24324324,35.6756757" id="Oval-2" stroke="#FF3C5F" stroke-width="2" stroke-linecap="round" transform="translate(5.405405, 34.054054) rotate(-19.000000) translate(-5.405405, -34.054054) "></path>
                </g>
            </g>
        </g>
    </g>
</svg>